<svg width="134" height="24" viewBox="0 0 134 24" fill="none" xmlns="http://www.w3.org/2000/svg">
<path d="M43.32 5.8C43.48 5.8 43.56 5.88 43.56 6.04V16.76C43.56 16.92 43.48 17 43.32 17H42.28C42.12 17 42.04 16.92 42.04 16.76V7.24H36.12V16.76C36.12 16.92 36.04 17 35.88 17H34.84C34.68 17 34.6 16.92 34.6 16.76V6.04C34.6 5.88 34.68 5.8 34.84 5.8H43.32ZM51.8363 11.16C51.8363 10.7973 51.7243 10.5093 51.5003 10.296C51.2869 10.072 50.9989 9.96 50.6363 9.96H48.6363C48.2736 9.96 47.9803 10.072 47.7563 10.296C47.5429 10.5093 47.4363 10.7973 47.4363 11.16V14.68C47.4363 15.0427 47.5429 15.336 47.7563 15.56C47.9803 15.7733 48.2736 15.88 48.6363 15.88H50.6363C50.9989 15.88 51.2869 15.7733 51.5003 15.56C51.7243 15.336 51.8363 15.0427 51.8363 14.68V11.16ZM53.1963 14.68C53.1963 15.48 52.9776 16.0933 52.5403 16.52C52.1136 16.9467 51.4789 17.16 50.6363 17.16H48.6363C47.7936 17.16 47.1536 16.9467 46.7163 16.52C46.2896 16.0933 46.0763 15.48 46.0763 14.68V11.16C46.0763 10.36 46.2896 9.74667 46.7163 9.32C47.1536 8.89333 47.7936 8.68 48.6363 8.68H50.6363C51.4789 8.68 52.1136 8.89333 52.5403 9.32C52.9776 9.74667 53.1963 10.36 53.1963 11.16V14.68ZM58.7556 13.32H56.7556V16.76C56.7556 16.92 56.6756 17 56.5156 17H55.6356C55.4756 17 55.3956 16.92 55.3956 16.76V9.08C55.3956 8.92 55.4756 8.84 55.6356 8.84H56.5156C56.6756 8.84 56.7556 8.92 56.7556 9.08V12.04H58.7556L60.3556 9.08C60.3983 8.99467 60.4463 8.936 60.4996 8.904C60.553 8.86133 60.6383 8.84 60.7556 8.84H61.7156C61.897 8.84 61.9503 8.92 61.8756 9.08L59.8756 12.68L62.1156 16.76C62.1903 16.92 62.137 17 61.9556 17H60.9956C60.8783 17 60.793 16.984 60.7396 16.952C60.6863 16.9093 60.6383 16.8453 60.5956 16.76L58.7556 13.32ZM63.0787 14.52C63.0787 12.9733 63.8787 12.2 65.4787 12.2H68.4387V11.16C68.4387 10.7973 68.3267 10.5093 68.1027 10.296C67.8894 10.072 67.6014 9.96 67.2387 9.96H66.1187C65.7561 9.96 65.4627 10.072 65.2387 10.296C65.0254 10.5093 64.9187 10.7973 64.9187 11.16C64.9187 11.32 64.8387 11.4 64.6787 11.4H63.7987C63.6387 11.4 63.5587 11.32 63.5587 11.16C63.5587 10.36 63.7721 9.74667 64.1987 9.32C64.6361 8.89333 65.2761 8.68 66.1187 8.68H67.2387C68.0814 8.68 68.7161 8.89333 69.1427 9.32C69.5801 9.74667 69.7987 10.36 69.7987 11.16V16.76C69.7987 16.92 69.7188 17 69.5588 17H68.6788C68.5187 17 68.4387 16.92 68.4387 16.76V16.2H68.3587C68.2734 16.3813 68.1508 16.5413 67.9907 16.68C67.8521 16.7973 67.6707 16.904 67.4467 17C67.2227 17.1067 66.9401 17.16 66.5987 17.16H65.4787C63.8787 17.16 63.0787 16.3867 63.0787 14.84V14.52ZM64.4387 14.84C64.4387 15.16 64.5294 15.416 64.7107 15.608C64.9027 15.7893 65.1587 15.88 65.4787 15.88H66.7587C67.2387 15.88 67.6387 15.72 67.9587 15.4C68.2787 15.08 68.4387 14.68 68.4387 14.2V13.48H65.4787C65.1587 13.48 64.9027 13.576 64.7107 13.768C64.5294 13.9493 64.4387 14.2 64.4387 14.52V14.84ZM74.2319 17.16C73.3892 17.16 72.7492 16.9467 72.3119 16.52C71.8852 16.0933 71.6719 15.48 71.6719 14.68V14.28C71.6719 14.12 71.7519 14.04 71.9119 14.04H72.7919C72.9519 14.04 73.0319 14.12 73.0319 14.28V14.68C73.0319 15.0427 73.1385 15.336 73.3519 15.56C73.5759 15.7733 73.8692 15.88 74.2319 15.88H76.3119C76.6319 15.88 76.8825 15.7893 77.0639 15.608C77.2559 15.416 77.3519 15.16 77.3519 14.84V14.52C77.3519 14.2 77.2559 13.9493 77.0639 13.768C76.8825 13.576 76.6319 13.48 76.3119 13.48H74.9519C74.7919 13.48 74.7119 13.4 74.7119 13.24V12.44C74.7119 12.28 74.7919 12.2 74.9519 12.2H76.1519C76.4719 12.2 76.7225 12.1093 76.9039 11.928C77.0959 11.736 77.1919 11.48 77.1919 11.16V11C77.1919 10.68 77.0959 10.4293 76.9039 10.248C76.7225 10.056 76.4719 9.96 76.1519 9.96H74.3919C74.0292 9.96 73.7359 10.072 73.5119 10.296C73.2985 10.5093 73.1919 10.7973 73.1919 11.16V11.56C73.1919 11.72 73.1119 11.8 72.9519 11.8H72.0719C71.9119 11.8 71.8319 11.72 71.8319 11.56V11.16C71.8319 10.36 72.0452 9.74667 72.4719 9.32C72.9092 8.89333 73.5492 8.68 74.3919 8.68H76.1519C77.7519 8.68 78.5519 9.45333 78.5519 11V11.16C78.5519 11.48 78.4879 11.7413 78.3599 11.944C78.2319 12.136 78.0932 12.2907 77.9439 12.408C77.7625 12.536 77.5652 12.6267 77.3519 12.68V12.76C77.6079 12.8133 77.8319 12.9147 78.0239 13.064C78.1945 13.192 78.3492 13.3733 78.4879 13.608C78.6372 13.8427 78.7119 14.1467 78.7119 14.52V14.84C78.7119 16.3867 77.9119 17.16 76.3119 17.16H74.2319ZM80.4288 14.52C80.4288 12.9733 81.2288 12.2 82.8288 12.2H85.7888V11.16C85.7888 10.7973 85.6768 10.5093 85.4528 10.296C85.2394 10.072 84.9514 9.96 84.5888 9.96H83.4688C83.1061 9.96 82.8128 10.072 82.5888 10.296C82.3754 10.5093 82.2688 10.7973 82.2688 11.16C82.2688 11.32 82.1888 11.4 82.0288 11.4H81.1488C80.9888 11.4 80.9088 11.32 80.9088 11.16C80.9088 10.36 81.1221 9.74667 81.5488 9.32C81.9861 8.89333 82.6261 8.68 83.4688 8.68H84.5888C85.4314 8.68 86.0661 8.89333 86.4928 9.32C86.9301 9.74667 87.1488 10.36 87.1488 11.16V16.76C87.1488 16.92 87.0688 17 86.9088 17H86.0288C85.8688 17 85.7888 16.92 85.7888 16.76V16.2H85.7088C85.6234 16.3813 85.5008 16.5413 85.3408 16.68C85.2021 16.7973 85.0208 16.904 84.7968 17C84.5728 17.1067 84.2901 17.16 83.9488 17.16H82.8288C81.2288 17.16 80.4288 16.3867 80.4288 14.84V14.52ZM81.7888 14.84C81.7888 15.16 81.8794 15.416 82.0608 15.608C82.2528 15.7893 82.5088 15.88 82.8288 15.88H84.1088C84.5888 15.88 84.9888 15.72 85.3088 15.4C85.6288 15.08 85.7888 14.68 85.7888 14.2V13.48H82.8288C82.5088 13.48 82.2528 13.576 82.0608 13.768C81.8794 13.9493 81.7888 14.2 81.7888 14.52V14.84ZM91.3419 17C91.1819 17 91.1019 16.92 91.1019 16.76V10.12H88.6219C88.4619 10.12 88.3819 10.04 88.3819 9.88V9.08C88.3819 8.92 88.4619 8.84 88.6219 8.84H94.9419C95.1019 8.84 95.1819 8.92 95.1819 9.08V9.88C95.1819 10.04 95.1019 10.12 94.9419 10.12H92.4619V16.76C92.4619 16.92 92.3819 17 92.2219 17H91.3419ZM100.587 15.72C100.907 15.72 101.158 15.6293 101.339 15.448C101.531 15.256 101.627 15 101.627 14.68V13.88C101.627 13.56 101.531 13.3093 101.339 13.128C101.158 12.936 100.907 12.84 100.587 12.84H97.7869V15.72H100.587ZM96.6669 17C96.5069 17 96.4269 16.92 96.4269 16.76V9.08C96.4269 8.92 96.5069 8.84 96.6669 8.84H97.5469C97.7069 8.84 97.7869 8.92 97.7869 9.08V11.56H100.587C102.187 11.56 102.987 12.3333 102.987 13.88V14.68C102.987 16.2267 102.187 17 100.587 17H96.6669ZM112.427 15.72C112.747 15.72 112.998 15.6293 113.179 15.448C113.371 15.256 113.467 15 113.467 14.68V14.52C113.467 14.2 113.371 13.9493 113.179 13.768C112.998 13.576 112.747 13.48 112.427 13.48H109.387V15.72H112.427ZM111.947 12.2C112.267 12.2 112.518 12.1093 112.699 11.928C112.891 11.736 112.987 11.48 112.987 11.16C112.987 10.84 112.891 10.5893 112.699 10.408C112.518 10.216 112.267 10.12 111.947 10.12H109.387V12.2H111.947ZM108.267 17C108.107 17 108.027 16.92 108.027 16.76V9.08C108.027 8.92 108.107 8.84 108.267 8.84H111.947C113.547 8.84 114.347 9.61333 114.347 11.16C114.347 11.48 114.288 11.7413 114.171 11.944C114.064 12.136 113.947 12.2907 113.819 12.408C113.67 12.536 113.499 12.6267 113.307 12.68V12.76C113.584 12.8133 113.835 12.9147 114.059 13.064C114.251 13.192 114.427 13.3733 114.587 13.608C114.747 13.8427 114.827 14.1467 114.827 14.52V14.68C114.827 16.2267 114.027 17 112.427 17H108.267ZM117.902 14.68C117.902 15.0427 118.009 15.336 118.222 15.56C118.446 15.7733 118.739 15.88 119.102 15.88H120.942C121.305 15.88 121.593 15.7733 121.806 15.56C122.03 15.336 122.142 15.0427 122.142 14.68V14.28C122.142 14.12 122.222 14.04 122.382 14.04H123.262C123.422 14.04 123.502 14.12 123.502 14.28V14.68C123.502 15.48 123.283 16.0933 122.846 16.52C122.419 16.9467 121.785 17.16 120.942 17.16H119.102C118.259 17.16 117.619 16.9467 117.182 16.52C116.755 16.0933 116.542 15.48 116.542 14.68V11.16C116.542 10.36 116.755 9.74667 117.182 9.32C117.619 8.89333 118.259 8.68 119.102 8.68H120.942C121.785 8.68 122.419 8.89333 122.846 9.32C123.283 9.74667 123.502 10.36 123.502 11.16V11.56C123.502 11.72 123.422 11.8 123.262 11.8H122.382C122.222 11.8 122.142 11.72 122.142 11.56V11.16C122.142 10.7973 122.03 10.5093 121.806 10.296C121.593 10.072 121.305 9.96 120.942 9.96H119.102C118.739 9.96 118.446 10.072 118.222 10.296C118.009 10.5093 117.902 10.7973 117.902 11.16V14.68ZM131.069 12.2V11.16C131.069 10.7973 130.957 10.5093 130.733 10.296C130.519 10.072 130.231 9.96 129.869 9.96H127.949C127.586 9.96 127.293 10.072 127.069 10.296C126.855 10.5093 126.749 10.7973 126.749 11.16V12.2H131.069ZM126.749 13.48V14.68C126.749 15.0427 126.855 15.336 127.069 15.56C127.293 15.7733 127.586 15.88 127.949 15.88H129.869C130.231 15.88 130.519 15.7733 130.733 15.56C130.957 15.336 131.069 15.0427 131.069 14.68V14.6C131.069 14.44 131.149 14.36 131.309 14.36H132.189C132.349 14.36 132.429 14.44 132.429 14.6V14.68C132.429 15.48 132.21 16.0933 131.773 16.52C131.346 16.9467 130.711 17.16 129.869 17.16H127.949C127.106 17.16 126.466 16.9467 126.029 16.52C125.602 16.0933 125.389 15.48 125.389 14.68V11.16C125.389 10.36 125.602 9.74667 126.029 9.32C126.466 8.89333 127.106 8.68 127.949 8.68H129.869C130.711 8.68 131.346 8.89333 131.773 9.32C132.21 9.74667 132.429 10.36 132.429 11.16V13.24C132.429 13.4 132.349 13.48 132.189 13.48H126.749Z" fill="#1B1C21"/>
<path fill-rule="evenodd" clip-rule="evenodd" d="M14.5001 7.50008L12.0001 10.0001L9.50008 7.50008C9.22393 7.22393 8.77622 7.22393 8.50008 7.50008C8.22393 7.77622 8.22393 8.22393 8.50008 8.50008L11.293 11.293C11.6835 11.6835 12.3167 11.6835 12.7072 11.293L15.5001 8.50008C15.7762 8.22393 15.7762 7.77622 15.5001 7.50008C15.2239 7.22393 14.7762 7.22393 14.5001 7.50008ZM14.5001 13.5001L12.0001 16.0001L9.50008 13.5001C9.22393 13.2239 8.77622 13.2239 8.50008 13.5001C8.22393 13.7762 8.22393 14.2239 8.50008 14.5001L11.293 17.293C11.6835 17.6835 12.3167 17.6835 12.7072 17.293L15.5001 14.5001C15.7762 14.2239 15.7762 13.7762 15.5001 13.5001C15.2239 13.2239 14.7762 13.2239 14.5001 13.5001Z" fill="#41F6D7"/>
</svg>
